<svg width="24" height="24" viewBox="0 0 24 24" fill="none" xmlns="http://www.w3.org/2000/svg">
<g clip-path="url(#clip0_1_751)">
<path d="M12.0011 1.59404C2.7311 1.59104 -1.9119 12.797 4.6411 19.352C6.09587 20.8072 7.9495 21.7983 9.96756 22.1999C11.9856 22.6015 14.0774 22.3957 15.9785 21.6084C17.8796 20.8211 19.5044 19.4877 20.6477 17.7769C21.7909 16.0661 22.4011 14.0547 22.4011 11.997C22.4011 6.25304 17.7461 1.59604 12.0011 1.59404ZM6.1101 6.78304C6.6111 4.18504 10.0031 3.48904 11.4861 5.68004C12.9691 7.87004 11.0641 10.762 8.4661 10.262C8.08291 10.1884 7.71797 10.04 7.39215 9.82532C7.06633 9.61062 6.78602 9.33381 6.56722 9.01072C6.34842 8.68764 6.19544 8.3246 6.117 7.94237C6.03857 7.56013 6.03622 7.16618 6.1101 6.78304ZM10.4321 15.771C9.9281 18.368 6.5351 19.059 5.0551 16.867C3.5751 14.675 5.4821 11.787 8.0801 12.288C8.46334 12.3621 8.82823 12.5109 9.1539 12.7261C9.47957 12.9413 9.75963 13.2185 9.97807 13.542C10.1965 13.8655 10.349 14.2289 10.427 14.6113C10.5049 14.9938 10.5066 15.3879 10.4321 15.771ZM11.6921 13.366C10.5401 13.143 10.2301 11.639 11.2011 10.979C12.1711 10.319 13.4571 11.159 13.2411 12.313C13.2091 12.4841 13.1435 12.6471 13.0483 12.7927C12.953 12.9383 12.8299 13.0636 12.6861 13.1615C12.5422 13.2593 12.3804 13.3278 12.21 13.3629C12.0396 13.398 11.8639 13.3991 11.6931 13.366H11.6921ZM17.8901 17.204C17.3891 19.802 13.9971 20.497 12.5141 18.307C11.0301 16.116 12.9351 13.225 15.5341 13.724C15.9174 13.7976 16.2824 13.9461 16.6083 14.1608C16.9342 14.3756 17.2146 14.6525 17.4334 14.9757C17.6522 15.2989 17.8052 15.6621 17.8835 16.0444C17.9619 16.4268 17.9641 16.8208 17.8901 17.204ZM15.9231 11.702C13.3251 11.201 12.6301 7.80604 14.8211 6.32204C17.0111 4.83904 19.9021 6.74404 19.4031 9.34204C19.33 9.72569 19.1819 10.0912 18.9673 10.4175C18.7527 10.7438 18.4759 11.0247 18.1526 11.2439C17.8294 11.4631 17.4661 11.6164 17.0835 11.695C16.7009 11.7736 16.3066 11.776 15.9231 11.702ZM13.5901 23.264L15.8541 23.874C16.8061 24.1266 17.8194 23.9909 18.6713 23.4966C19.5232 23.0023 20.144 22.1899 20.3971 21.238L21.0371 18.836C19.2353 21.2362 16.5584 22.8276 13.5891 23.264H13.5901ZM21.2331 3.59904L18.8701 2.97004C20.0643 3.88859 21.0641 5.03518 21.8115 6.34327C22.5589 7.65135 23.0391 9.09488 23.2241 10.59L23.8741 8.13104C24.1228 7.17977 23.9843 6.16869 23.4889 5.31938C22.9935 4.47006 22.1816 3.85178 21.2311 3.60004L21.2331 3.59904ZM0.672102 13.809L0.131102 15.849C-0.1215 16.801 0.0142757 17.8144 0.50858 18.6663C1.00288 19.5182 1.81526 20.1389 2.7671 20.392L4.8741 20.954C2.62464 19.1855 1.12399 16.6344 0.671102 13.809H0.672102ZM10.3571 0.702039L8.1501 0.126039C7.67839 0.000382543 7.18654 -0.0310739 6.70266 0.0334676C6.21879 0.098009 5.75238 0.257283 5.33009 0.502184C4.9078 0.747085 4.53793 1.07281 4.2416 1.46074C3.94527 1.84868 3.7283 2.29121 3.6031 2.76304L3.0521 4.84504C4.86982 2.58268 7.48346 1.10056 10.3581 0.702039H10.3571Z" fill="#222222"/>
</g>
<defs>
<clipPath id="clip0_1_751">
<rect width="24" height="24" fill="white"/>
</clipPath>
</defs>
</svg>
